<svg id="Calque_1" data-name="Calque 1" xmlns="http://www.w3.org/2000/svg" xmlns:xlink="http://www.w3.org/1999/xlink" viewBox="0 0 37.98 48.71"><defs><style>.cls-1{fill:url(#Dégradé_sans_nom_407);}.cls-2{fill:url(#Dégradé_sans_nom_402);}.cls-3{fill:url(#Dégradé_sans_nom_448);}</style><linearGradient id="Dégradé_sans_nom_407" x1="31.29" y1="12.26" x2="7.63" y2="12.26" gradientUnits="userSpaceOnUse"><stop offset="0" stop-color="#55e4ff"/><stop offset="0.08" stop-color="#3bd2ff"/><stop offset="0.17" stop-color="#21bfff"/><stop offset="0.27" stop-color="#0fb2ff"/><stop offset="0.38" stop-color="#04abff"/><stop offset="0.49" stop-color="#00a8ff"/><stop offset="0.62" stop-color="#3976ff"/><stop offset="0.74" stop-color="#694cff"/><stop offset="0.85" stop-color="#8c2eff"/><stop offset="0.94" stop-color="#a11cff"/><stop offset="0.99" stop-color="#a915ff"/></linearGradient><linearGradient id="Dégradé_sans_nom_402" y1="27.65" x2="37.98" y2="27.65" gradientUnits="userSpaceOnUse"><stop offset="0" stop-color="#55e4ff"/><stop offset="0.02" stop-color="#4ddeff"/><stop offset="0.09" stop-color="#31cbff"/><stop offset="0.17" stop-color="#1bbbff"/><stop offset="0.25" stop-color="#0cb0ff"/><stop offset="0.35" stop-color="#03aaff"/><stop offset="0.49" stop-color="#00a8ff"/><stop offset="0.5" stop-color="#0e9cff"/><stop offset="0.53" stop-color="#327cff"/><stop offset="0.55" stop-color="#5260ff"/><stop offset="0.59" stop-color="#6e49ff"/><stop offset="0.62" stop-color="#8436ff"/><stop offset="0.66" stop-color="#9527ff"/><stop offset="0.72" stop-color="#a01dff"/><stop offset="0.79" stop-color="#a717ff"/><stop offset="0.99" stop-color="#a915ff"/></linearGradient><linearGradient id="Dégradé_sans_nom_448" x1="25.63" y1="31.15" x2="25.63" y2="7.57" gradientUnits="userSpaceOnUse"><stop offset="0" stop-color="#6100ff"/><stop offset="0.05" stop-color="#4d22ff"/><stop offset="0.12" stop-color="#364bff"/><stop offset="0.19" stop-color="#226dff"/><stop offset="0.26" stop-color="#1387ff"/><stop offset="0.33" stop-color="#0899ff"/><stop offset="0.41" stop-color="#02a4ff"/><stop offset="0.49" stop-color="#00a8ff"/><stop offset="0.62" stop-color="#3870ff"/><stop offset="0.74" stop-color="#6840ff"/><stop offset="0.85" stop-color="#8b1dff"/><stop offset="0.94" stop-color="#a008ff"/><stop offset="0.99" stop-color="#a800ff"/></linearGradient></defs><title>logo</title><path class="cls-1" d="M30.37,7.57A12.27,12.27,0,0,0,21.27.14a18.64,18.64,0,0,0-4.56,0A12.28,12.28,0,0,0,7.63,7.51a12.3,12.3,0,0,1,17,11.39A5.62,5.62,0,0,1,19,24.52,12.29,12.29,0,0,0,30.37,7.57Z"/><path class="cls-2" d="M37.62,22.06A14.82,14.82,0,0,0,38,19.21a11.93,11.93,0,0,1-.27,2.25A12.31,12.31,0,0,1,13.36,18.9a5.63,5.63,0,1,1,11.25,0A12.31,12.31,0,0,0,.26,16.33a19.44,19.44,0,0,0,0,5.13A12.81,12.81,0,0,1,0,19.22,14.29,14.29,0,0,0,.35,22a18.63,18.63,0,0,0,2.3,6.37c4.64,9.75,14,20.32,16.34,20.32S30.7,38.13,35.34,28.37A19,19,0,0,0,37.62,22.06Z"/><g id="Calque_2" data-name="Calque 2"><path class="cls-3" d="M37.71,16.34a12.27,12.27,0,0,0-7.34-8.77A12.3,12.3,0,0,1,19,24.52a5.63,5.63,0,0,1-5.63-5.62,12.32,12.32,0,0,0,24.35,2.56,18.15,18.15,0,0,0,.18-2.56A17.94,17.94,0,0,0,37.71,16.34Z"/></g></svg>